<svg width="26" height="26" viewBox="0 0 26 26" fill="none" xmlns="http://www.w3.org/2000/svg">
<g clip-path="url(#clip0_6_39)">
<path d="M25.9914 12.999C25.9914 14.7754 25.6342 16.4685 24.9884 18.0118C24.6554 18.8093 24.2464 19.5661 23.769 20.2711C23.3453 20.8984 22.8697 21.485 22.3461 22.0272C19.9831 24.4752 16.669 26 13.0015 26C12.6074 26 12.2151 25.9815 11.8302 25.9463C10.2555 25.8075 8.76228 25.3856 7.40037 24.7343C3.5719 22.9024 0.779622 19.2534 0.13939 14.9068V14.905C0.0487223 14.2832 0.000610352 13.6467 0.000610352 12.999C0.000610352 12.3514 0.0487223 11.7149 0.13939 11.0931C0.13939 11.0931 0.13939 11.0931 0.13939 11.0913C0.722271 7.12957 3.09077 3.75074 6.40487 1.79857C6.4659 1.76156 6.52698 1.72455 6.58991 1.68939V1.68755C7.9296 0.927023 9.41731 0.39781 11.0012 0.153556C11.6526 0.0517861 12.3206 -3.05176e-05 13.0015 -3.05176e-05C16.3693 -3.05176e-05 19.4372 1.28231 21.7465 3.38621C22.8993 4.43724 23.8615 5.69181 24.5777 7.09442V7.09627C25.4825 8.8671 25.9914 10.8748 25.9914 12.999V12.999Z" fill="#DEDFFB"/>
<path d="M25.9912 12.9991C25.9912 14.7755 25.6341 16.4686 24.9883 18.0118C24.6553 18.8093 24.2463 19.5661 23.7689 20.2711C21.8371 21.4091 19.587 22.0642 17.1852 22.0642C16.791 22.0642 16.3988 22.0457 16.0139 22.0105C14.4392 21.8717 12.9459 21.4499 11.584 20.7985C7.75555 18.9666 4.9633 15.3176 4.32306 10.971V10.9692C4.1436 9.73857 4.13256 8.46369 4.32306 7.15735C4.32306 7.15735 4.32306 7.15735 4.32306 7.1555C4.61171 5.19222 5.33893 3.37328 6.40477 1.79858C6.4658 1.76157 6.52688 1.72456 6.58981 1.6894V1.68756C7.9295 0.927038 9.4172 0.397826 11.0011 0.153571C11.6525 0.0518014 12.3205 -1.52588e-05 13.0014 -1.52588e-05C16.3692 -1.52588e-05 19.4371 1.28232 21.7464 3.38623C22.8992 4.43726 23.8614 5.69182 24.5776 7.09443V7.09628C25.4824 8.86712 25.9912 10.8748 25.9912 12.9991V12.9991Z" fill="#F3F1FC"/>
<path d="M4.67648 5.51236C5.05397 4.17452 5.64239 2.92365 6.40477 1.7986C6.46581 1.76159 6.52689 1.72458 6.58981 1.68942C6.14016 2.15758 5.89406 3.53982 5.81263 4.0894C5.47216 4.40766 5.07432 4.92948 4.67648 5.51236V5.51236Z" fill="#F3F1FC"/>
<path d="M9.18036 12.8177L12.2964 16.6832L11.0604 20.5302C8.096 18.9462 5.81815 16.2428 4.78751 12.9879C4.84115 12.9898 4.89665 12.9898 4.95217 12.9898C6.26042 12.9898 7.65193 12.9343 9.18036 12.8177V12.8177Z" fill="#F3F1FC"/>
<path d="M24.4255 15.2278C24.6296 13.4726 24.6036 10.9891 24.2268 9.42171C24.4135 9.04671 24.7248 8.22272 24.5771 7.09631V7.09445C23.8609 5.69185 22.8987 4.43728 21.7459 3.38625H21.7441C21.7441 3.38625 20.7429 2.68687 19.1239 2.95251C17.1227 1.89259 14.5317 1.46205 13.6624 1.34152C12.8764 0.311507 11.0006 0.153595 11.0006 0.153595C9.4167 0.397849 7.92899 0.927061 6.5893 1.68759V1.68943C6.14098 2.15832 5.89484 3.54052 5.8125 4.08955C4.70669 5.1298 2.97451 8.30993 2.69975 8.82102C1.34574 9.35059 0.189852 11.0174 0.13878 11.0913V11.0932C0.0481123 11.7149 0 12.3514 0 12.9991C0 13.6467 0.0481123 14.2833 0.13878 14.905V14.9069C0.941261 16.5045 2.37672 17.0495 2.94113 17.2075C3.86818 18.9467 5.04844 20.4916 6.45326 21.8005C6.56437 22.4548 6.87368 24.0137 7.39976 24.7343C8.76167 25.3857 10.2549 25.8076 11.8296 25.9464C11.9209 25.913 13.3048 25.3738 14.3535 24.0428C16.2942 23.6492 18.2191 22.8683 19.8617 22.1419C20.4207 22.1905 21.5504 22.2492 22.3455 22.0272C23.4594 20.8726 24.3606 19.5144 24.9878 18.0118C24.9878 18.0118 25.1247 16.9427 24.4255 15.2278V15.2278ZM13.566 1.60839C14.3549 1.71458 16.993 2.13414 19.0047 3.20346C19.3781 3.85941 20.5078 5.90372 20.6654 6.88181L17.0076 9.69064L12.1565 8.20833L10.5367 3.81385C11.2477 2.80519 12.9677 1.9018 13.566 1.60839V1.60839ZM6.02996 4.26629C7.74901 3.92242 9.74072 3.94067 10.2923 3.95367L11.8955 8.30318L9.16003 12.5412C7.41832 12.6728 5.85569 12.7275 4.39186 12.7087C3.59383 11.7156 3.08987 9.60176 2.94815 8.94552C3.22524 8.43238 4.98014 5.22334 6.02996 4.26629V4.26629ZM6.59156 21.5481C5.2085 20.2485 4.04626 18.7163 3.138 16.99C3.00284 15.5364 4.10784 13.5282 4.4252 12.9862C4.59996 12.9883 4.7743 12.9906 4.95208 12.9906C6.26049 12.9906 7.65283 12.9335 9.18104 12.8181L12.2966 16.6838L10.8258 21.2609C10.2263 21.4025 8.03972 21.8709 6.59156 21.5481V21.5481ZM11.0871 21.3547L12.5651 16.7554L17.2793 15.1006L20.8861 17.752C20.7577 18.4086 20.2186 21.0389 19.6537 21.93C18.0729 22.6264 16.2396 23.3633 14.3935 23.75C13.8715 23.4612 11.89 22.3287 11.0871 21.3547V21.3547ZM21.07 17.5426L17.429 14.866L17.1792 9.90889L20.814 7.1177C21.3331 7.42009 23.2634 8.5756 23.9407 9.41611C24.3233 10.9293 24.3539 13.3931 24.1557 15.1475C23.7428 15.6423 22.545 16.9611 21.07 17.5426V17.5426Z" fill="url(#paint0_linear_6_39)"/>
<path d="M14.7817 11.7807V11.7861C13.985 11.7861 13.3327 12.4277 13.3327 13.2351C13.3327 12.4277 12.6804 11.7861 11.8838 11.7861V11.7807C12.6804 11.7807 13.3327 11.1338 13.3327 10.3318C13.3327 10.7274 13.4931 11.0964 13.7605 11.353C14.0225 11.615 14.3807 11.7807 14.7817 11.7807V11.7807Z" fill="white"/>
</g>
<defs>
<linearGradient id="paint0_linear_6_39" x1="12.4993" y1="0.153595" x2="12.4993" y2="25.9464" gradientUnits="userSpaceOnUse">
<stop stop-color="#35BB89"/>
<stop offset="1" stop-color="#1C9869"/>
</linearGradient>
<clipPath id="clip0_6_39">
<rect width="26" height="26" fill="white"/>
</clipPath>
</defs>
</svg>
